<?xml version="1.0" standalone="no"?>
<!DOCTYPE svg PUBLIC "-//W3C//DTD SVG 20010904//EN"
 "http://www.w3.org/TR/2001/REC-SVG-20010904/DTD/svg10.dtd">
<svg version="1.0" xmlns="http://www.w3.org/2000/svg"
 width="695.000000pt" height="854.000000pt" viewBox="0 0 695.000000 854.000000"
 preserveAspectRatio="xMidYMid meet">
<metadata>
Created by potrace 1.16, written by Peter Selinger 2001-2019
</metadata>
<g transform="translate(0.000000,854.000000) scale(0.100000,-0.100000)"
fill="#000000" stroke="none">
<path d="M1764 8528 c-3 -5 -13 -7 -21 -4 -8 3 -20 3 -26 -1 -7 -4 -21 -9 -32
-10 -11 -2 -33 -8 -50 -15 -42 -16 -219 -101 -225 -107 -3 -4 -23 -19 -45 -35
-59 -43 -235 -226 -218 -226 4 0 -1 -8 -10 -18 -20 -22 -95 -173 -101 -204 -3
-13 -12 -57 -21 -98 -20 -91 -15 -256 11 -340 4 -14 8 -27 8 -30 0 -17 83
-170 111 -208 89 -116 166 -181 293 -247 66 -34 89 -55 61 -55 -6 0 -9 -7 -6
-15 4 -8 2 -17 -4 -20 -5 -4 -7 -10 -4 -14 2 -5 -5 -41 -16 -82 -18 -66 -25
-96 -33 -149 -1 -9 -5 -21 -10 -28 -4 -7 -4 -21 -1 -33 4 -11 2 -25 -3 -32
-13 -16 -13 -418 0 -434 5 -7 7 -21 3 -33 -4 -12 -1 -27 5 -35 6 -8 9 -18 6
-23 -3 -5 6 -51 21 -103 14 -52 26 -102 26 -111 1 -10 5 -18 10 -18 5 0 7 -7
3 -15 -3 -8 -2 -15 2 -15 4 0 8 -8 9 -17 1 -10 13 -44 27 -75 14 -32 22 -58
18 -58 -4 0 -2 -4 4 -8 14 -9 65 -122 56 -122 -4 0 -2 -4 4 -8 17 -11 65 -111
59 -122 -8 -13 -145 -81 -145 -72 0 4 -4 3 -8 -3 -4 -5 -16 -15 -27 -22 -322
-189 -554 -363 -780 -585 -71 -71 -133 -128 -137 -128 -4 0 -8 -6 -8 -12 0 -7
-12 -27 -28 -43 -34 -39 -99 -118 -137 -170 -16 -22 -33 -41 -37 -43 -4 -2 -8
-8 -8 -14 0 -6 -13 -27 -30 -48 -16 -21 -30 -43 -30 -48 0 -6 -7 -15 -16 -20
-9 -5 -16 -13 -15 -18 0 -5 -10 -25 -21 -44 -12 -19 -40 -71 -61 -115 -22 -44
-43 -82 -46 -85 -3 -3 -7 -9 -8 -15 -3 -17 -38 -110 -43 -115 -3 -3 -7 -14 -8
-25 -2 -11 -8 -22 -13 -23 -5 -2 -7 -7 -5 -11 3 -4 -6 -45 -20 -92 -13 -46
-22 -89 -20 -96 3 -7 1 -15 -5 -19 -6 -3 -7 -19 -4 -34 3 -15 2 -30 -2 -33 -9
-6 -7 -182 1 -242 13 -85 17 -106 36 -159 11 -32 17 -62 14 -67 -3 -5 -1 -9 3
-9 5 0 15 -17 22 -37 18 -53 62 -113 129 -177 60 -58 173 -136 197 -136 7 0
20 -6 27 -12 20 -19 58 -23 233 -23 165 1 225 5 225 17 0 3 14 9 31 13 27 6
197 97 267 143 22 15 23 14 16 -12 -3 -15 -1 -32 5 -40 7 -8 11 -37 9 -67 l-3
-54 -96 -46 c-53 -26 -131 -71 -174 -100 -42 -30 -87 -60 -99 -68 -11 -8 -46
-43 -76 -79 -30 -35 -61 -70 -67 -78 -7 -7 -13 -16 -13 -20 0 -4 -11 -22 -25
-39 -21 -28 -116 -215 -122 -241 -1 -5 -14 -42 -28 -81 -34 -97 -38 -133 -37
-373 1 -245 5 -276 43 -378 10 -30 17 -58 14 -63 -4 -5 -2 -9 4 -9 5 0 13 -15
16 -32 4 -18 20 -59 36 -90 16 -32 27 -58 24 -58 -3 0 9 -22 25 -49 17 -26 30
-53 30 -59 0 -6 4 -12 8 -14 4 -2 18 -19 30 -39 29 -48 110 -155 152 -203 49
-53 203 -185 275 -233 73 -49 212 -123 231 -123 8 0 14 -5 14 -11 0 -5 4 -8 8
-5 4 2 45 -9 91 -25 46 -16 86 -27 89 -24 3 3 11 0 18 -6 8 -6 20 -9 29 -6 8
4 17 2 20 -3 7 -12 317 -10 332 3 7 5 19 7 27 4 14 -6 82 13 181 50 153 56
336 196 446 340 24 32 46 60 49 63 7 7 38 64 73 135 16 33 38 73 50 89 19 27
22 28 71 21 98 -15 159 -22 251 -30 95 -9 670 -12 681 -4 5 5 30 8 55 8 82 0
104 3 116 13 7 5 16 8 20 5 4 -3 39 1 78 8 38 8 70 13 71 12 13 -17 64 -117
60 -117 -3 0 12 -29 34 -65 22 -36 40 -68 40 -71 0 -11 110 -141 156 -185 50
-46 168 -139 178 -139 3 0 28 -14 54 -30 27 -17 56 -30 65 -30 9 0 23 -7 31
-16 9 -8 16 -13 16 -10 0 3 30 -5 68 -18 37 -13 72 -21 79 -19 6 2 14 0 17 -6
4 -6 13 -8 21 -4 9 3 21 1 28 -5 13 -10 315 -14 332 -4 6 4 24 7 42 9 17 1 64
13 104 27 40 14 76 23 80 21 4 -3 9 -1 11 4 1 5 9 11 17 13 51 12 243 115 293
158 89 77 200 182 226 215 18 22 46 57 64 77 18 20 44 53 58 73 14 20 31 43
38 51 7 8 11 14 8 14 -3 0 8 21 24 47 17 26 30 53 30 60 0 7 5 13 12 13 6 0 9
3 6 6 -4 3 4 29 17 57 25 57 37 87 41 102 1 6 14 51 29 100 14 50 28 106 30
125 2 19 5 37 6 40 5 16 8 81 8 205 1 195 -5 242 -50 383 -18 53 -31 98 -31
99 3 7 -96 185 -131 237 -100 149 -265 286 -447 371 l-85 40 0 45 c0 25 4 51
8 57 4 7 5 28 1 48 -3 20 -2 35 3 35 6 0 50 -23 99 -51 103 -60 186 -99 222
-105 14 -3 52 -11 86 -19 78 -19 206 -19 275 0 30 8 58 12 63 9 4 -3 8 -1 8 5
0 5 14 13 32 16 48 11 126 62 191 124 63 60 145 168 152 198 2 10 15 46 29 81
15 34 27 75 28 90 1 15 4 32 7 37 13 23 20 294 8 302 -5 3 -6 16 -3 30 4 13 3
29 -1 36 -4 7 -8 26 -10 42 -2 35 -69 238 -111 340 -25 59 -74 152 -112 215
-6 8 -17 29 -26 45 -9 17 -43 67 -75 113 -33 45 -59 86 -59 91 0 5 -4 11 -9
13 -4 2 -46 48 -92 103 -112 136 -323 344 -444 440 -55 43 -102 81 -105 84
-15 17 -280 194 -350 234 -36 21 -72 42 -80 47 -75 45 -140 78 -162 84 -35 8
-35 14 2 76 16 27 27 50 24 50 -2 0 9 26 25 58 43 83 91 197 97 229 3 15 9 30
15 31 5 2 7 7 5 11 -2 3 9 53 24 109 16 56 27 109 24 116 -3 8 -1 17 5 20 6 4
8 20 4 36 -3 17 -1 30 4 30 13 0 14 441 1 457 -5 7 -7 21 -3 32 3 12 3 26 -1
33 -5 7 -9 19 -10 28 -9 60 -15 88 -34 150 -12 39 -18 75 -15 80 3 6 2 10 -4
10 -5 0 -9 12 -8 27 2 24 15 35 86 73 96 52 199 142 265 233 25 34 51 68 56
75 6 6 8 12 6 12 -3 0 6 21 19 46 14 26 25 55 25 65 0 11 5 19 11 19 6 0 9 7
5 15 -3 8 -2 15 2 15 11 0 16 61 16 190 0 128 -5 200 -16 200 -4 0 -6 9 -5 19
1 17 -69 179 -82 191 -4 3 -24 31 -46 64 -56 82 -179 195 -282 258 -48 29 -91
52 -95 51 -4 -2 -8 1 -8 5 0 5 -6 9 -13 9 -6 0 -43 12 -80 27 -37 15 -72 24
-77 21 -5 -3 -12 0 -15 6 -4 5 -13 8 -21 5 -7 -3 -16 -1 -19 3 -7 12 -314 11
-321 0 -3 -5 -10 -7 -15 -3 -5 3 -16 0 -24 -6 -8 -7 -15 -10 -15 -6 0 3 -24
-4 -52 -15 -29 -12 -59 -22 -65 -22 -7 0 -13 -4 -13 -8 0 -4 -9 -10 -20 -14
-35 -11 -164 -100 -223 -154 -31 -29 -73 -79 -93 -112 -42 -67 -48 -68 -156
-30 -32 11 -58 17 -58 14 0 -3 -7 0 -15 7 -8 6 -19 9 -25 5 -5 -3 -10 -2 -10
4 0 6 -7 8 -15 5 -8 -4 -15 -1 -15 6 0 6 -4 9 -9 6 -4 -3 -53 6 -107 19 -54
14 -104 23 -111 21 -7 -3 -15 -1 -19 5 -3 6 -19 7 -34 4 -15 -3 -31 -2 -34 3
-8 13 -514 13 -522 1 -3 -5 -16 -6 -29 -3 -13 3 -29 3 -36 -2 -7 -4 -28 -9
-48 -10 -20 -2 -76 -15 -125 -28 -49 -14 -93 -23 -98 -20 -4 3 -8 0 -8 -6 0
-6 -5 -8 -10 -5 -6 4 -17 1 -25 -5 -8 -7 -15 -10 -15 -7 0 3 -31 -5 -69 -18
-39 -13 -76 -22 -84 -21 -21 3 -47 26 -47 42 0 8 -4 14 -8 14 -4 0 -15 12 -24
28 -23 37 -54 70 -113 118 -60 48 -175 127 -175 119 0 -3 -17 3 -37 14 -49 25
-173 62 -183 56 -5 -3 -11 -1 -14 3 -7 12 -295 11 -302 0z m306 -278 c25 -7
50 -15 55 -18 6 -4 15 -7 22 -8 49 -8 230 -145 217 -165 -3 -5 -1 -9 4 -9 12
0 34 -49 27 -61 -4 -5 -13 -9 -21 -9 -8 0 -14 -4 -14 -8 0 -7 -44 -37 -65 -43
-5 -2 -17 -9 -25 -16 -8 -7 -44 -35 -80 -63 -92 -72 -185 -156 -244 -219 -28
-30 -62 -67 -76 -81 -14 -15 -37 -43 -52 -62 -15 -20 -33 -42 -41 -50 -7 -7
-39 -53 -72 -102 -32 -48 -70 -95 -83 -104 -22 -14 -28 -14 -68 1 -62 23 -143
87 -188 151 -45 63 -89 171 -80 198 3 10 2 18 -3 18 -5 0 -9 34 -9 75 0 41 4
75 9 75 5 0 6 9 2 19 -10 32 51 170 104 240 52 66 121 131 140 131 6 0 11 5
11 10 0 6 4 10 9 10 5 0 31 13 58 30 74 45 218 78 327 75 50 -1 111 -8 136
-15z m3120 1 c25 -7 52 -15 60 -18 8 -3 21 -7 29 -9 8 -1 17 -6 20 -11 3 -4
13 -9 21 -11 48 -10 169 -103 227 -174 63 -77 129 -220 117 -253 -3 -8 -2 -15
2 -15 5 0 9 -41 9 -90 0 -50 -2 -90 -5 -90 -3 0 -6 -12 -6 -28 -1 -15 -16 -57
-34 -95 -49 -101 -197 -232 -270 -237 -37 -3 -50 -1 -50 9 0 12 -111 178 -154
231 -103 125 -174 199 -271 285 -37 33 -74 67 -83 75 -8 8 -25 22 -37 30 -80
54 -211 144 -214 146 -9 8 20 56 59 98 40 43 155 125 182 130 7 1 36 9 63 18
28 9 59 18 70 20 41 8 222 0 265 -11z m-1545 -254 c39 -3 108 -12 155 -22 47
-10 93 -19 102 -20 10 -1 20 -4 24 -7 3 -4 12 -4 20 -1 8 3 14 0 14 -7 0 -6 6
-10 13 -7 6 2 37 -5 67 -15 30 -11 60 -21 65 -22 6 -1 20 -7 31 -14 12 -6 24
-8 28 -5 3 3 6 1 6 -6 0 -7 4 -10 9 -7 5 4 39 -10 75 -29 36 -19 66 -33 66
-30 0 5 150 -82 215 -125 157 -105 334 -277 433 -421 20 -30 39 -56 43 -59 37
-34 179 -337 193 -413 3 -12 5 -23 7 -24 1 -2 3 -7 4 -13 1 -5 3 -11 5 -12 1
-2 3 -12 5 -23 1 -11 10 -54 20 -95 27 -118 24 -443 -5 -570 -12 -52 -23 -104
-25 -115 -1 -11 -3 -20 -5 -20 -1 0 -4 -13 -6 -28 -3 -16 -16 -52 -29 -82 -13
-29 -21 -56 -17 -59 3 -3 0 -6 -7 -6 -7 0 -9 -4 -6 -10 3 -5 1 -10 -6 -10 -7
0 -10 -3 -6 -6 7 -8 -66 -157 -99 -201 -13 -17 -24 -35 -24 -38 0 -6 -43 -66
-65 -91 -5 -7 -39 -46 -74 -87 -82 -99 -320 -307 -350 -307 -5 0 -11 -4 -13
-9 -4 -11 -100 -72 -105 -67 -4 4 82 141 97 156 3 3 6 10 7 15 1 6 17 43 36
84 19 41 33 80 30 88 -3 7 -1 13 5 13 5 0 10 10 9 23 0 12 6 64 13 115 13 92
12 111 -15 282 -1 8 -5 23 -9 32 -4 9 -8 22 -10 30 -3 25 -65 148 -97 195 -18
27 -59 74 -92 106 -60 59 -212 167 -234 167 -7 0 -13 5 -13 10 0 6 -3 9 -8 8
-4 -2 -25 4 -47 14 -51 21 -77 30 -93 34 -8 1 -21 6 -30 10 -9 4 -24 8 -32 9
-8 1 -44 10 -80 20 -56 16 -106 18 -370 18 -276 -1 -312 -3 -375 -21 -38 -11
-72 -19 -76 -16 -4 2 -9 0 -11 -5 -1 -6 -14 -12 -28 -14 -29 -5 -42 -9 -137
-52 -146 -67 -287 -179 -358 -285 -16 -25 -32 -47 -35 -50 -13 -12 -74 -157
-73 -172 1 -10 -2 -18 -7 -18 -4 0 -8 -10 -7 -22 0 -13 -5 -62 -12 -110 -9
-67 -9 -109 0 -175 15 -116 17 -128 19 -128 1 0 4 -12 5 -26 2 -15 20 -59 39
-98 20 -39 34 -71 31 -71 -3 0 -1 -6 5 -12 22 -25 101 -151 97 -155 -10 -9
-231 155 -326 242 -197 181 -341 383 -421 590 -4 11 -18 44 -29 73 -12 29 -19
57 -16 62 3 6 1 10 -6 10 -7 0 -9 3 -6 7 4 3 2 12 -5 20 -6 7 -8 16 -6 19 3 3
-3 32 -13 65 -44 142 -47 457 -7 644 11 49 20 98 19 108 0 9 4 17 9 17 5 0 7
7 4 15 -4 8 -1 15 6 15 6 0 9 4 5 9 -3 5 6 35 20 67 14 31 25 63 25 70 0 8 5
14 12 14 6 0 9 3 5 6 -7 7 75 169 98 195 8 8 15 19 15 24 0 13 136 186 193
245 148 154 306 271 495 366 74 37 140 67 148 67 8 0 14 4 14 9 0 4 8 8 17 8
9 0 45 12 81 26 35 14 76 27 91 29 14 2 28 5 31 6 3 1 10 3 15 4 6 2 12 4 15
5 3 1 12 3 20 5 8 1 53 11 100 20 47 10 118 18 158 18 40 -1 75 3 78 9 4 5 44
7 98 4 50 -3 123 -7 161 -9z m105 -1803 c19 -3 47 -7 63 -9 15 -1 28 -3 30 -4
1 -2 14 -4 29 -6 14 -2 55 -15 90 -30 34 -14 71 -28 81 -30 36 -8 170 -91 222
-138 52 -46 123 -141 118 -159 -2 -4 0 -8 5 -8 15 0 76 -175 67 -191 -4 -5 -3
-15 2 -21 10 -18 11 -218 0 -218 -4 0 -6 -8 -2 -19 7 -24 -50 -184 -86 -239
-16 -24 -29 -46 -29 -49 0 -14 -118 -148 -159 -181 -25 -20 -54 -44 -64 -53
-9 -9 -30 -22 -45 -30 -15 -8 -29 -17 -32 -20 -15 -20 -260 -126 -260 -113 0
4 -6 1 -13 -5 -8 -6 -29 -13 -48 -15 -19 -3 -58 -10 -88 -16 -71 -13 -242 -13
-317 1 -32 7 -68 13 -79 15 -11 1 -21 3 -22 4 -2 2 -7 4 -13 5 -5 1 -12 3 -15
4 -3 0 -7 1 -10 1 -32 3 -249 100 -265 119 -3 3 -18 12 -33 20 -26 14 -106 82
-167 141 -63 62 -156 201 -143 214 3 3 1 6 -6 6 -7 0 -10 4 -7 9 4 5 2 11 -4
13 -6 2 -12 12 -14 23 -3 11 -14 46 -25 77 -10 31 -17 66 -14 77 3 12 1 21 -4
21 -11 0 -11 200 0 218 5 6 6 16 2 21 -12 21 68 214 104 250 11 11 27 31 37
46 21 33 108 100 193 149 69 40 219 99 231 91 5 -3 10 -1 12 5 1 5 17 11 33
12 17 1 34 4 40 7 5 3 25 6 44 8 20 2 38 7 41 10 6 7 471 -5 520 -13z m-1776
-1183 l119 -120 -119 -138 c-65 -76 -122 -142 -126 -148 -4 -5 -20 -26 -36
-45 -96 -119 -302 -433 -302 -461 0 -5 -5 -9 -12 -9 -6 0 -9 -3 -5 -6 3 -3 -9
-34 -26 -68 -29 -54 -89 -183 -92 -196 -10 -39 -19 -60 -27 -60 -5 0 -7 -4 -4
-9 4 -5 -3 -30 -14 -55 -10 -25 -17 -46 -13 -46 3 0 0 -7 -7 -15 -7 -8 -9 -15
-5 -15 4 0 2 -7 -5 -15 -7 -8 -9 -15 -6 -15 4 0 4 -5 0 -12 -4 -7 -9 -21 -10
-33 -1 -11 -12 -54 -23 -95 -19 -69 -29 -124 -36 -192 -1 -16 -4 -29 -5 -30
-1 -2 -4 -24 -5 -50 -1 -25 -5 -57 -9 -70 -7 -24 -93 -100 -181 -161 -62 -42
-191 -102 -216 -100 -11 1 -19 -2 -19 -7 0 -4 -10 -8 -22 -8 -13 0 -50 -2 -83
-3 -33 -2 -66 0 -73 5 -6 4 -17 4 -22 1 -6 -3 -16 -3 -22 1 -7 5 -20 9 -29 9
-18 2 -93 45 -124 72 -28 24 -88 113 -88 130 0 7 -5 13 -10 13 -6 0 -7 3 -4 6
3 4 1 16 -5 28 -19 35 -27 194 -16 311 9 106 15 150 18 150 1 0 3 11 6 25 12
70 175 420 195 420 5 0 9 5 9 10 0 11 82 134 122 183 13 16 45 57 73 90 58 73
263 279 354 357 80 68 231 182 231 175 0 -3 10 4 23 15 29 28 184 130 196 130
5 0 16 6 23 13 16 14 27 20 135 78 124 67 147 78 163 79 8 0 69 -54 134 -119z
m3218 84 c96 -49 112 -58 120 -70 4 -5 8 -6 8 -2 0 5 17 -1 38 -14 57 -34 166
-103 172 -109 3 -3 17 -12 31 -20 32 -18 93 -63 233 -171 10 -7 141 -121 207
-179 16 -14 29 -31 29 -37 0 -6 9 -15 20 -18 11 -3 20 -13 20 -21 0 -8 5 -14
12 -14 11 0 61 -51 126 -130 20 -25 43 -52 51 -60 22 -23 144 -189 173 -235
49 -78 127 -233 121 -239 -4 -3 -1 -6 5 -6 7 0 12 -5 12 -12 0 -6 11 -39 25
-74 14 -34 27 -73 29 -85 3 -13 5 -24 7 -24 1 0 3 -9 5 -20 1 -11 10 -58 19
-105 21 -104 16 -272 -10 -340 -9 -25 -18 -53 -20 -63 -16 -74 -132 -183 -217
-203 -5 -1 -9 -3 -10 -4 -2 -1 -59 -4 -128 -5 -121 -3 -127 -2 -192 27 -38 17
-68 35 -68 39 0 5 -6 9 -13 9 -17 0 -111 64 -179 122 -61 53 -78 87 -81 166
-1 26 -6 53 -10 60 -5 7 -6 21 -2 31 3 11 1 22 -5 26 -6 4 -8 15 -5 25 3 10 1
21 -5 25 -6 3 -8 10 -5 14 2 5 -6 48 -20 96 -13 49 -22 92 -19 97 3 4 1 8 -4
8 -5 0 -10 10 -10 23 0 12 -16 61 -35 110 -19 48 -34 87 -32 87 2 0 -11 30
-29 68 -18 37 -37 78 -41 92 -4 14 -18 43 -31 66 -13 22 -21 44 -17 47 3 4 2
7 -4 7 -5 0 -23 26 -39 57 -16 32 -32 62 -37 68 -21 29 -77 115 -77 120 0 7
-130 185 -157 215 -13 14 -23 28 -23 32 0 3 -6 13 -13 20 -7 7 -69 78 -136
156 l-124 144 119 119 c65 65 125 119 133 119 7 0 45 -16 83 -35z m-2819 -397
c15 -6 27 -15 27 -21 0 -6 3 -8 6 -4 4 3 23 -2 43 -12 20 -11 40 -19 44 -19 4
-1 38 -16 75 -36 82 -42 237 -105 276 -112 16 -3 34 -8 40 -12 6 -3 17 -7 26
-8 8 0 43 -9 78 -18 118 -32 282 -48 487 -48 206 0 337 12 466 43 52 12 102
22 112 21 9 0 17 4 17 10 0 5 7 8 15 4 8 -3 15 -1 15 5 0 6 4 8 8 5 4 -2 35 6
67 20 33 14 68 26 78 27 9 0 17 5 17 9 0 4 7 8 15 8 9 0 38 11 65 25 28 14 50
22 50 18 0 -5 4 -3 8 3 4 6 55 35 114 64 l106 53 57 -54 c69 -66 238 -256 285
-322 19 -26 45 -59 57 -74 12 -14 27 -38 35 -52 7 -14 15 -28 18 -31 11 -10
80 -118 80 -125 0 -4 9 -20 21 -36 11 -16 22 -35 23 -42 1 -7 15 -35 30 -62
16 -27 29 -55 29 -62 0 -7 4 -13 9 -13 5 0 6 -4 3 -10 -3 -5 -1 -10 4 -10 6 0
11 -7 11 -15 0 -9 9 -33 20 -54 26 -52 90 -242 84 -252 -2 -4 0 -9 6 -11 5 -1
12 -19 14 -38 3 -19 5 -35 6 -35 1 0 3 -9 5 -20 1 -11 10 -60 20 -110 26 -130
33 -313 22 -553 -3 -67 -9 -127 -12 -132 -3 -6 -45 -10 -93 -10 -48 0 -115 -7
-150 -15 -35 -8 -68 -13 -73 -9 -5 3 -9 0 -9 -6 0 -7 -6 -10 -13 -7 -8 3 -27
-1 -43 -8 -57 -25 -138 -57 -149 -59 -18 -3 -178 -87 -225 -120 -49 -33 -277
-259 -325 -322 -52 -68 -108 -157 -143 -229 -19 -38 -34 -71 -34 -72 1 -2 -10
-28 -24 -58 -13 -31 -26 -66 -28 -78 -3 -12 -5 -23 -7 -24 -1 -2 -3 -7 -4 -13
-1 -5 -4 -13 -5 -17 -1 -5 -3 -12 -5 -18 -1 -5 -3 -12 -4 -15 -1 -3 -4 -16 -6
-30 -2 -14 -11 -63 -20 -110 -14 -71 -20 -166 -24 -366 l-1 -30 -147 -23
c-132 -21 -182 -23 -458 -23 -228 0 -336 5 -410 16 -87 13 -174 33 -175 39 -1
3 -8 114 -15 230 -3 54 -12 132 -20 174 -8 41 -12 80 -9 84 3 5 0 9 -6 9 -7 0
-10 6 -7 14 3 7 0 19 -6 25 -6 6 -8 11 -5 11 4 0 -6 36 -22 79 -15 44 -25 82
-22 85 3 3 0 6 -7 6 -7 0 -9 5 -6 10 3 6 1 10 -6 10 -7 0 -10 3 -7 6 4 3 -11
37 -33 74 -21 38 -39 72 -39 75 0 4 -12 22 -26 41 -15 19 -24 34 -20 34 7 0 5
3 -97 125 -123 148 -229 240 -381 329 -91 54 -262 130 -288 128 -10 0 -18 4
-18 10 0 5 -7 8 -15 5 -8 -4 -17 -2 -20 4 -4 5 -10 7 -14 5 -3 -2 -36 1 -71 9
-36 7 -100 16 -142 20 -43 4 -81 11 -84 17 -3 5 -6 139 -6 296 0 257 2 299 22
397 13 61 22 118 22 128 0 9 4 17 9 17 6 0 7 5 4 10 -3 6 -3 16 1 22 5 7 9 19
9 28 3 26 64 198 85 240 11 21 20 46 20 54 0 8 7 22 16 30 8 9 13 16 10 16 -7
0 63 134 113 219 101 170 292 420 430 561 60 61 83 79 97 74 10 -3 31 -10 47
-16z m-723 -2381 c19 -1 41 -6 48 -10 6 -5 16 -6 21 -2 11 6 128 -32 149 -48
6 -5 12 -6 12 -2 0 9 140 -68 212 -117 61 -42 199 -172 238 -226 14 -19 31
-40 38 -47 6 -8 12 -18 12 -24 0 -6 3 -11 8 -11 4 0 19 -21 32 -47 14 -26 38
-69 53 -95 34 -57 99 -237 93 -255 -3 -7 -1 -13 4 -13 5 0 9 -8 9 -17 0 -10 4
-43 8 -73 4 -30 7 -120 6 -200 -2 -161 -5 -195 -15 -205 -4 -4 -4 -13 -1 -21
3 -8 0 -14 -7 -14 -6 0 -9 -4 -6 -9 3 -5 -1 -28 -9 -52 -110 -320 -327 -503
-653 -551 -92 -13 -231 -1 -312 27 -24 8 -56 17 -70 20 -73 13 -238 109 -348
202 -56 48 -165 171 -218 245 -35 49 -107 178 -100 178 3 0 -9 29 -25 65 -17
35 -28 69 -24 75 3 5 2 10 -3 10 -5 0 -12 17 -15 38 -3 20 -13 71 -22 112 -25
112 -23 292 5 405 12 50 24 101 26 114 18 90 115 254 202 341 57 56 137 117
163 122 8 2 16 5 19 9 19 21 164 71 185 63 8 -4 15 -1 15 6 0 7 8 9 20 5 11
-3 26 -3 34 2 13 7 116 7 216 0z m3867 0 c6 -4 18 -4 27 -1 9 4 16 1 16 -6 0
-7 7 -10 15 -6 23 9 144 -40 247 -100 44 -26 152 -131 199 -192 46 -61 125
-209 133 -250 1 -9 5 -24 8 -32 44 -125 55 -352 24 -500 -10 -47 -20 -92 -21
-100 -2 -8 -4 -15 -5 -15 -1 0 -4 -13 -6 -29 -7 -39 -114 -276 -125 -276 -5 0
-9 -5 -9 -11 0 -39 -233 -285 -338 -357 -64 -43 -189 -109 -218 -114 -10 -2
-21 -6 -24 -10 -3 -4 -17 -9 -30 -12 -14 -2 -52 -11 -85 -18 -80 -19 -287 -15
-352 5 -26 9 -63 19 -80 22 -18 4 -33 11 -33 17 0 6 -3 8 -7 5 -6 -7 -116 51
-121 65 -2 4 -10 8 -18 8 -20 0 -206 188 -199 201 4 5 2 9 -2 9 -9 0 -73 103
-77 123 -2 7 -9 26 -15 42 -25 59 -40 105 -34 105 3 0 0 6 -6 14 -6 8 -11 18
-10 22 1 5 0 12 -1 17 -6 18 -8 73 -8 232 -1 196 0 216 11 233 5 6 6 16 2 21
-3 5 -1 12 5 16 6 4 8 10 5 15 -3 5 5 37 19 72 38 100 39 103 40 108 3 18 52
110 59 110 4 0 5 5 2 10 -3 6 -1 10 4 10 6 0 11 5 11 10 0 20 82 130 153 206
104 111 320 268 340 247 4 -3 7 -1 7 5 0 9 22 21 42 22 4 0 29 10 55 21 27 11
61 21 76 21 15 1 30 5 33 10 3 5 14 6 24 3 10 -3 21 -2 24 3 6 11 226 10 243
-1z"/>
<path d="M2615 7001 c-16 -5 -37 -10 -45 -12 -8 -2 -21 -8 -28 -14 -24 -17
-111 -107 -110 -114 1 -3 -4 -24 -10 -46 -36 -123 28 -258 152 -320 162 -81
370 59 370 250 -1 69 -23 120 -76 175 -61 65 -177 102 -253 81z"/>
<path d="M4203 6996 c-24 -8 -43 -12 -43 -10 0 2 -12 -6 -27 -19 -88 -73 -127
-149 -121 -235 14 -188 204 -313 363 -238 112 52 171 148 163 265 -5 74 -9 89
-23 109 -80 109 -209 162 -312 128z"/>
<path d="M3303 6070 c-78 -6 -110 -12 -137 -30 -53 -32 -91 -86 -90 -129 0
-37 36 -122 67 -155 9 -11 17 -23 17 -27 0 -12 119 -123 148 -138 15 -8 30
-19 34 -25 4 -6 8 -8 8 -4 0 4 12 3 28 -3 l27 -9 0 -215 0 -214 -50 5 c-27 4
-60 7 -72 8 -13 0 -23 5 -23 10 0 4 -7 6 -15 2 -8 -3 -15 -2 -15 2 0 4 -10 8
-23 8 -38 3 -168 68 -237 120 -36 26 -67 52 -70 56 -9 12 -50 1 -71 -18 -40
-36 -10 -92 89 -166 63 -48 221 -125 245 -120 4 1 7 -3 7 -9 0 -5 4 -8 9 -5 5
3 44 -4 87 -15 102 -27 255 -32 357 -13 121 23 256 68 330 110 38 22 76 43 85
48 9 5 36 31 60 58 62 71 57 118 -14 129 -14 3 -50 -16 -100 -52 -86 -61 -235
-135 -279 -139 -3 0 -6 -1 -7 -1 -3 -2 -24 -4 -100 -12 l-47 -6 -3 215 c-3
213 -2 217 28 213 4 0 10 4 13 9 3 5 24 18 46 30 34 17 82 61 164 148 24 27
81 146 81 171 0 65 -76 135 -163 152 -74 14 -295 20 -414 11z"/>
</g>
</svg>
